<svg xmlns="http://www.w3.org/2000/svg" xmlns:xlink="http://www.w3.org/1999/xlink" width="27.527" height="22.024" viewBox="0 0 27.527 22.024">
  <defs>
    <linearGradient id="linear-gradient" x1="0.5" x2="0.5" y2="1" gradientUnits="objectBoundingBox">
      <stop offset="0" stop-color="#f1b820"/>
      <stop offset="1" stop-color="#f5cd4f"/>
    </linearGradient>
  </defs>
  <g id="twitter-_154_" data-name="twitter-[#154]" transform="translate(0 0)">
    <g id="Page-1" transform="translate(0 0)">
      <g id="Dribbble-Light-Preview" transform="translate(0)">
        <g id="icons">
          <path id="twitter-_154_2" data-name="twitter-[#154]" d="M12.657,7383.021a15.829,15.829,0,0,0,16.069-15.82c0-.241,0-.48-.017-.72a11.359,11.359,0,0,0,2.817-2.879,11.4,11.4,0,0,1-3.243.877,5.6,5.6,0,0,0,2.483-3.076,11.465,11.465,0,0,1-3.587,1.349,5.717,5.717,0,0,0-7.991-.242,5.516,5.516,0,0,0-1.634,5.314,16.129,16.129,0,0,1-11.64-5.808,5.51,5.51,0,0,0,1.75,7.419,5.668,5.668,0,0,1-2.564-.693v.069a5.586,5.586,0,0,0,4.531,5.45,5.7,5.7,0,0,1-2.549.1,5.647,5.647,0,0,0,5.275,3.862A11.442,11.442,0,0,1,4,7380.529a16.172,16.172,0,0,0,8.657,2.495" transform="translate(-4 -7360.999)" fill-rule="evenodd" fill="url(#linear-gradient)"/>
        </g>
      </g>
    </g>
  </g>
</svg>
